<svg width="1296" height="66" viewBox="0 0 1296 66" fill="none" xmlns="http://www.w3.org/2000/svg">
<g opacity="0.7">
<path d="M33.5649 39.2919C33.5649 43.7355 29.3423 45.7977 24.7267 45.7977H11.4941V45.6504C11.4941 45.5031 12.5744 42.4834 12.5744 39.8074V26.5994C12.5744 23.948 11.4941 20.9038 11.4941 20.7565V20.6092H24.0393C28.9986 20.6092 32.3865 23.5061 32.3865 27.2868C32.3865 31.0675 29.7596 32.1723 27.1081 32.9825C30.3243 33.6699 33.5649 35.3884 33.5649 39.2673V39.2919ZM19.5712 32.3196H21.5597C24.0148 32.3196 25.1195 29.3245 25.1195 27.3359C25.1195 25.3474 23.9902 22.3768 21.5597 22.3768H19.5712V32.3196ZM26.3471 39.1937C26.3471 36.6404 25.4141 33.989 22.2717 33.989H19.5712V44.0792H22.2717C25.0704 44.0792 26.3471 42.2379 26.3471 39.1937Z" fill="#E6E6E6"/>
<path d="M54.5555 42.4834C54.4082 44.5211 52.9107 46.1414 50.2593 46.1414C47.6078 46.1414 46.6013 45.0612 45.9875 43.0971C45.251 44.4474 43.5325 46.1414 40.6846 46.1414C37.8368 46.1414 35.0381 43.0971 35.0381 40.3721C35.0381 37.647 38.1805 34.5782 41.6667 34.5782C45.1528 34.5782 44.3181 34.7991 45.6929 35.3393V33.4243C45.6929 31.043 45.6929 29.5208 44.9318 29.5208C42.9678 29.5208 36.7566 34.48 36.7566 34.48H36.5848V28.9562C40.12 28.146 43.4343 27.7778 45.3492 27.7778C50.5539 27.7778 52.2724 30.5765 52.2724 33.9644V39.9793C52.2724 42.2133 52.6652 43.3426 54.4819 42.3852L54.5801 42.4834H54.5555ZM45.7911 42.1642C45.7175 41.7714 45.6929 41.4032 45.6929 40.9367V36.5422C45.3492 36.444 45.0055 36.3949 44.6372 36.3949C42.5996 36.3949 41.8385 37.647 41.8385 39.3164C41.8385 40.9858 42.7469 42.6061 44.4654 42.6061C46.1839 42.6061 45.3737 42.4588 45.7911 42.1642Z" fill="#E6E6E6"/>
<path d="M55.3658 45.6504C55.3658 45.5031 56.446 42.4834 56.446 39.8074V26.2557C56.446 23.6042 55.2922 20.7073 55.2922 20.56V20.4127C55.2676 20.4127 56.3478 20.2654 56.3478 20.2654L63.0255 19.578V39.8074C63.0255 42.4588 64.1057 45.5031 64.1057 45.6504V45.7977H55.3658V45.6504Z" fill="#E6E6E6"/>
<path d="M84.3842 42.4834C84.2369 44.5211 82.7393 46.1414 80.0879 46.1414C77.4364 46.1414 76.4299 45.0612 75.8161 43.0971C75.0796 44.4474 73.3611 46.1414 70.5133 46.1414C67.6654 46.1414 64.8667 43.0971 64.8667 40.3721C64.8667 37.647 68.0091 34.5782 71.4953 34.5782C74.9814 34.5782 74.1467 34.7991 75.5215 35.3393V33.4243C75.5215 31.043 75.5215 29.5208 74.7605 29.5208C72.7964 29.5208 66.5852 34.48 66.5852 34.48H66.4134V28.9562C69.9486 28.146 73.2629 27.7778 75.1778 27.7778C80.3825 27.7778 82.101 30.5765 82.101 33.9644V39.9793C82.101 42.2133 82.4938 43.3426 84.3105 42.3852L84.4087 42.4834H84.3842ZM75.6197 42.1642C75.5461 41.7714 75.5215 41.4032 75.5215 40.9367V36.5422C75.1778 36.444 74.8341 36.3949 74.4659 36.3949C72.4282 36.3949 71.6671 37.647 71.6671 39.3164C71.6671 40.9858 72.5755 42.6061 74.294 42.6061C76.0125 42.6061 75.2024 42.4588 75.6197 42.1642Z" fill="#E6E6E6"/>
<path d="M105.448 45.6504V45.7977H96.7082V45.6504C96.7082 45.5031 97.7884 42.4834 97.7884 39.8074V34.5046C97.7884 32.4423 96.5609 31.7795 95.2843 31.7549C94.4741 31.7304 93.6885 31.9759 92.9766 32.2705V39.8074C92.9766 42.4588 94.0568 45.5031 94.0568 45.6504V45.7977H85.3169V45.6504C85.3169 45.5031 86.3971 42.4834 86.3971 39.8074V33.9399C86.3971 31.2885 85.3169 28.2442 85.3169 28.0969V27.9496H92.9766V30.9202C93.8849 29.349 95.7262 27.7532 98.574 27.7532C101.422 27.7532 104.368 29.84 104.368 33.5471V39.8074C104.368 42.4588 105.448 45.5031 105.448 45.6504Z" fill="#E6E6E6"/>
<path d="M106.627 36.9596C106.627 31.0921 110.506 27.7778 116.128 27.7778C121.75 27.7778 122.02 28.9562 123.394 29.349L123.493 35.462H123.321C121.995 33.3752 118.804 29.3735 116.299 29.3735C113.795 29.3735 113.722 31.9513 113.746 34.75C113.82 39.0218 115.146 41.9678 118.975 41.9678C122.805 41.9678 122.118 41.5505 124.106 40.4212L124.254 40.5194C123.517 42.778 120.768 46.1659 115.931 46.1659C111.095 46.1659 106.602 43.4408 106.602 36.9105L106.627 36.9596Z" fill="#E6E6E6"/>
<path d="M126.193 45.6504C126.193 45.5031 127.274 42.4834 127.274 39.8074V33.9399C127.274 31.2885 126.193 28.2443 126.193 28.0969V27.9496H133.853V39.7829C133.853 42.4343 134.933 45.4785 134.933 45.6258V45.7731H126.193V45.6258V45.6504Z" fill="#E6E6E6"/>
<path d="M156.488 45.6504V45.7977H147.748V45.6504C147.748 45.5031 148.828 42.4834 148.828 39.8074V34.5046C148.828 32.4423 147.601 31.7795 146.324 31.7549C145.514 31.7304 144.728 31.9759 144.016 32.2705V39.8074C144.016 42.4588 145.097 45.5031 145.097 45.6504V45.7977H136.357V45.6504C136.357 45.5031 137.437 42.4834 137.437 39.8074V33.9399C137.437 31.2885 136.357 28.2442 136.357 28.0969V27.9496H144.016V30.9202C144.925 29.349 146.766 27.7532 149.614 27.7532C152.462 27.7532 155.408 29.84 155.408 33.5471V39.8074C155.408 42.4588 156.488 45.5031 156.488 45.6504Z" fill="#E6E6E6"/>
<path d="M175.735 47.0742C175.735 51.6406 170.874 52.7699 166.21 52.7699C161.545 52.7699 158.084 52.5244 158.084 48.9646C158.084 45.4048 158.427 47.2461 159.017 46.5587C158.206 45.6749 158.035 44.5947 158.035 43.8091C158.035 41.5504 159.459 40.1756 162.012 39.5373C159.778 38.6044 157.961 36.8122 157.961 34.0135C157.961 29.5699 162.576 27.7532 166.063 27.7532C169.549 27.7532 168.935 27.9987 170.285 28.5633C171.12 26.2311 172.912 24.1935 176.3 24.6845L175.416 29.5699L175.318 29.6436C174.262 29.0543 172.863 28.6615 171.267 29.0789C172.986 30.0609 174.238 31.6567 174.238 34.0135C174.238 38.4571 169.549 40.3229 166.063 40.3229C162.576 40.3229 164.246 40.2247 163.313 39.9301C162.552 40.1756 161.963 40.5684 161.963 41.1085C161.963 41.6486 162.65 41.7714 163.951 41.7714H169.721C173.698 41.7714 175.76 43.76 175.76 47.0497L175.735 47.0742ZM171.93 49.2347C171.93 48.4245 171.267 48.0808 169.426 48.0808H163.632C162.797 48.0808 162.061 48.0072 161.423 47.8353C161.742 49.6275 163.092 51.0759 166.701 51.0759C170.31 51.0759 171.93 50.6831 171.93 49.2347ZM164.295 34.0626C164.295 36.2721 164.614 38.8499 166.087 38.8499C167.56 38.8499 167.928 36.2721 167.928 34.0626C167.928 31.8531 167.536 29.3244 166.087 29.3244C164.639 29.3244 164.295 31.8776 164.295 34.0626Z" fill="#E6E6E6"/>
<path d="M198.125 45.6749V45.7731H193.166V45.6258C193.412 44.6438 193.24 42.7289 192.479 40.7403L191.153 37.1805H181.136L180.203 39.8074C179.32 42.1888 179.32 44.4474 179.712 45.6504V45.7977H176.177V45.6995C176.865 44.6438 177.773 42.5325 178.583 40.2493L184.623 23.7761C185.064 22.524 184.794 21.3702 184.475 20.7319V20.6582H188.182L195.867 40.8385C196.603 42.8762 197.266 44.3983 198.125 45.6995V45.6749ZM190.662 35.9039L186.046 23.6533L181.603 35.9039H190.637H190.662Z" fill="#E6E6E6"/>
<path d="M198.714 37.1314C198.714 31.534 202.176 28.2933 206.841 28.2933C211.505 28.2933 211.161 29.1771 212.708 30.0119V33.9153C212.733 33.9153 212.561 33.9153 212.561 33.9153C211.407 31.9268 209.59 29.4226 206.865 29.4226C204.14 29.4226 201.881 32.7369 201.881 36.5913C201.906 40.9858 204.115 44.0301 207.896 44.0301C211.677 44.0301 211.456 43.4654 213.494 41.5259H213.567C212.266 44.3983 209.762 46.0923 206.718 46.0923C202.397 46.0923 198.714 42.8025 198.714 37.156V37.1314Z" fill="#E6E6E6"/>
<path d="M226.481 42.9007C225.573 44.742 223.83 46.0677 221.694 46.0677C219.558 46.0677 217.667 44.1528 217.667 41.3786V29.7172H215.114V28.8334C218.011 28.0724 219.263 26.0838 220.098 23.7024H220.515V28.4897H225.401V29.7172H220.515V40.9858C220.54 42.9744 221.448 44.03 223.142 44.03C224.836 44.03 225.204 43.7845 226.456 42.8762L226.481 42.9007Z" fill="#E6E6E6"/>
<path d="M15.3241 17.2703C15.4223 17.0985 15.6678 16.6075 15.8151 16.1165L16.9935 11.722H16.4534C15.8888 11.722 15.1277 12.5321 14.8822 12.6794H14.8577L15.2014 11.4028H19.8414L19.4977 12.6794H19.4731C19.3258 12.5321 18.9821 11.722 18.4175 11.722H17.9019L16.7235 16.1165C16.6007 16.6075 16.6007 17.0985 16.5762 17.2703C16.5762 17.2949 15.3487 17.2949 15.3487 17.2949L15.3241 17.2703Z" fill="#E6E6E6"/>
<path d="M23.5238 15.8954C23.1801 16.7056 22.6154 17.3685 22.0998 17.3685C21.5843 17.3685 21.4861 17.0739 21.6579 16.4847L22.1489 14.6679C22.3453 13.9805 22.1489 13.735 21.8298 13.735C21.1915 13.735 20.455 14.8152 20.0622 16.0918L19.743 17.3194H18.9329L20.2095 12.5321C20.3322 12.0411 20.3322 11.5746 20.3077 11.4027C20.3077 11.3782 21.3633 11.2309 21.3633 11.2309L20.455 14.6434C20.8723 13.9069 21.4615 13.2195 22.2226 13.2195C22.9837 13.2195 23.2537 13.6123 23.0082 14.5943L22.4681 16.5829C22.3453 17.0248 22.9591 16.6811 23.4747 15.8954L23.5238 15.9445V15.8954Z" fill="#E6E6E6"/>
<path d="M24.8741 15.3308C24.7023 16.19 24.9969 16.7793 25.6352 16.7793C26.2735 16.7793 26.7645 16.5092 27.2555 15.6745L27.3291 15.7481C26.8627 16.7547 26.028 17.3439 25.2424 17.3439C24.4568 17.3439 23.6711 16.4846 24.064 15.0853C24.4077 13.8578 25.4142 13.1458 26.3471 13.1458C27.28 13.1458 27.6238 13.5141 27.4764 14.1278C27.3291 14.7907 26.4208 15.4044 24.825 15.3062L24.8741 15.3308ZM24.9478 15.0362V15.1344C26.1016 15.1098 26.6172 14.6434 26.7399 14.1769C26.8627 13.7841 26.6908 13.465 26.3226 13.465C25.7088 13.465 25.1687 14.3242 24.9478 15.0362Z" fill="#E6E6E6"/>
<g clip-path="url(#clip0_25125_332)">
<path d="M318.116 25.1997V40.7167C318.116 42.4621 318.809 44.136 320.043 45.3701C321.277 46.6043 322.951 47.2976 324.696 47.2976C326.442 47.2976 328.116 46.6043 329.35 45.3701C330.584 44.136 331.277 42.4621 331.277 40.7167V25.1997C331.277 23.4543 330.584 21.7804 329.35 20.5463C328.116 19.3121 326.442 18.6188 324.696 18.6188C322.951 18.6188 321.277 19.3121 320.043 20.5463C318.809 21.7804 318.116 23.4543 318.116 25.1997ZM322.826 40.7167V25.1997C322.823 24.9504 322.873 24.7033 322.971 24.4743C323.069 24.2452 323.214 24.0392 323.397 23.8696C323.58 23.7 323.796 23.5705 324.032 23.4894C324.267 23.4082 324.517 23.3773 324.766 23.3986C325.004 23.3909 325.242 23.4322 325.464 23.52C325.686 23.6078 325.888 23.7402 326.056 23.909C326.225 24.0778 326.358 24.2794 326.445 24.5014C326.533 24.7234 326.575 24.9611 326.567 25.1997V40.7167C326.56 41.1922 326.368 41.6462 326.031 41.9824C325.695 42.3186 325.241 42.5107 324.766 42.5178C324.52 42.5271 324.275 42.4878 324.045 42.4023C323.814 42.3168 323.603 42.1867 323.423 42.0194C323.242 41.8521 323.097 41.651 322.995 41.4274C322.892 41.2039 322.835 40.9624 322.826 40.7167ZM369.239 18.9651H355.938V23.6757H360.233V46.8127H364.944V23.6757H369.239V18.9651ZM383.093 18.9651V40.7167C383.093 41.1944 382.904 41.6525 382.566 41.9903C382.228 42.3281 381.77 42.5178 381.292 42.5178C380.815 42.5178 380.356 42.3281 380.019 41.9903C379.681 41.6525 379.491 41.1944 379.491 40.7167V18.9651H374.642V40.7167C374.642 42.4805 375.343 44.172 376.59 45.4191C377.837 46.6663 379.528 47.3669 381.292 47.3669C383.056 47.3669 384.747 46.6663 385.995 45.4191C387.242 44.172 387.942 42.4805 387.942 40.7167V18.9651H383.093ZM426.181 23.6757V18.9651H414.543V46.8127H426.181V42.1022H419.254V34.8978H423.687V30.1873H419.254V23.6757H426.181ZM351.505 46.8127H346.517L343.054 33.6509C343.918 33.4799 344.695 33.0127 345.252 32.3298C345.808 31.6468 346.109 30.7911 346.102 29.9102V25.6153C346.107 25.359 346.061 25.1043 345.966 24.8664C345.87 24.6285 345.727 24.4124 345.546 24.2311C345.365 24.0499 345.149 23.9072 344.911 23.8118C344.673 23.7163 344.418 23.67 344.162 23.6757H342.361V46.8127H337.65V18.9651H344.162C345.883 18.9497 347.542 19.6076 348.784 20.7983C350.027 21.989 350.754 23.6183 350.812 25.3382V29.7717C350.876 30.9222 350.671 32.0717 350.214 33.1296C349.757 34.1875 349.061 35.1248 348.18 35.8677L351.505 46.8127ZM404.014 18.9651V34.2051L399.165 18.9651H394.315V46.8127H399.165V33.2353L403.598 46.8127H408.863V18.9651H404.014ZM302.183 19.3808V47.2284H307.17V35.3135H311.742V30.6029H307.17V24.0913H314.375V19.3808H302.183Z" fill="#E6E6E6"/>
</g>
<g clip-path="url(#clip1_25125_332)">
<path d="M582.177 15.2367C586.721 15.2682 591.265 15.2682 595.809 15.2367C595.809 16.988 595.809 18.7393 595.809 20.4907C593.111 20.4433 590.413 20.4907 587.715 20.4433C587.715 23.9776 587.715 27.5118 587.715 31.046C589.798 31.046 591.833 31.046 593.916 31.046C593.916 32.6553 593.916 34.2647 593.916 35.874C591.833 35.874 589.75 35.874 587.668 35.874C587.668 38.9033 587.668 41.98 587.668 45.0567C587.668 45.5773 587.668 46.0507 587.668 46.5713C590.555 46.5713 593.395 46.524 596.282 46.5713C596.251 48.1807 596.251 49.79 596.282 51.3993C591.581 51.4309 586.879 51.4309 582.177 51.3993C582.145 48.4016 582.145 45.4038 582.177 42.406C582.177 33.3653 582.177 24.2773 582.177 15.2367ZM638.362 15C639.908 15 641.454 15 643 15C641.233 21.2164 639.466 27.4329 637.699 33.6493C637.557 34.2647 637.273 34.88 637.178 35.5427C637.178 40.7967 637.226 46.0507 637.178 51.2573C635.317 51.2573 633.455 51.2573 631.593 51.2573C631.546 46.0033 631.593 40.7967 631.546 35.5427C631.025 33.5073 630.362 31.5667 629.747 29.5313C628.485 25.3029 627.207 21.0587 625.913 16.7987C625.724 16.2307 625.534 15.71 625.392 15.142C627.191 15.142 628.942 15.142 630.694 15.142C631.214 17.3667 631.83 19.5913 632.398 21.816C633.06 24.372 633.723 26.928 634.386 29.484C635.711 24.656 637.036 19.828 638.362 15ZM539.388 15.2367C541.234 15.2367 543.08 15.2367 544.878 15.2367C545.92 22.0211 546.961 28.8056 548.002 35.59C548.618 31.046 549.186 26.5493 549.801 22.0527C550.117 19.7807 550.416 17.5087 550.7 15.2367C552.357 15.2367 554.014 15.2367 555.718 15.2367C555.765 15.3787 555.765 15.5207 555.765 15.6627C556.759 22.1947 557.8 28.6793 558.794 35.2113C559.031 33.6967 559.173 32.182 559.362 30.7147C560.025 25.5396 560.688 20.3802 561.35 15.2367C562.897 15.2367 564.443 15.2367 565.989 15.2367C564.474 27.3067 562.912 39.3293 561.35 51.3993C559.646 51.3993 557.927 51.3993 556.191 51.3993C555.197 44.1573 554.156 37.01 553.162 29.768C551.978 36.9627 550.842 44.2047 549.706 51.3993C548.002 51.3993 546.251 51.3993 544.547 51.3993C542.843 39.3451 541.123 27.2909 539.388 15.2367ZM566.841 15.2367C571.385 15.2367 575.882 15.284 580.426 15.2367C580.378 16.9407 580.378 18.5973 580.331 20.3013C577.68 20.3013 575.014 20.3013 572.332 20.3013C572.332 23.804 572.332 27.354 572.332 30.8567C574.414 30.904 576.497 30.8567 578.58 30.904C578.548 32.4818 578.548 34.0753 578.58 35.6847C576.497 35.7162 574.399 35.7162 572.284 35.6847C572.284 39.2504 572.284 42.832 572.284 46.4293C575.172 46.382 578.012 46.4293 580.899 46.382C580.946 48.086 580.946 49.7427 580.946 51.3993C577.964 51.4467 574.935 51.3993 571.906 51.3993C570.202 51.352 568.545 51.3993 566.841 51.3993C566.841 39.3451 566.841 27.2909 566.841 15.2367ZM597.56 15.1893C599.312 15.1893 601.063 15.142 602.862 15.142C602.814 19.7333 602.814 24.3247 602.814 28.916C604.755 24.3247 606.648 19.7333 608.589 15.142C610.435 15.1893 612.234 15.142 614.032 15.142C612.044 19.828 609.962 24.514 607.926 29.2473C607.895 29.342 607.895 29.4367 607.926 29.5313C610.388 36.7733 612.896 44.0153 615.358 51.3047C613.559 51.3047 611.776 51.3047 610.009 51.3047C608.431 46.4136 606.838 41.5382 605.228 36.6787C604.424 38.2407 603.619 39.8027 602.814 41.3647C602.767 44.7253 602.814 48.0387 602.814 51.3993C601.047 51.3993 599.296 51.3993 597.56 51.3993C597.56 39.3136 597.56 27.2436 597.56 15.1893ZM616.115 15.142C617.945 15.142 619.791 15.142 621.653 15.142C621.606 20.6327 621.653 26.076 621.606 31.5667C621.653 36.5367 621.606 41.5067 621.653 46.524C624.398 46.4767 627.191 46.524 629.984 46.4767C629.984 48.086 629.984 49.6796 629.984 51.2573C625.392 51.2573 620.754 51.2573 616.115 51.2573C616.115 40.6547 616.115 30.052 616.115 19.4493C616.115 18.0293 616.115 16.6093 616.115 15.142ZM501.048 51.3047C501.048 39.282 501 27.2593 501.048 15.2367C505.024 15.284 509.047 15.2367 513.023 15.284C521.164 15.2367 529.306 15.284 537.447 15.2367C537.494 17.698 537.447 20.1593 537.447 22.6207C537.447 32.1504 537.447 41.696 537.447 51.2573C537.447 51.2573 537.4 51.3047 537.352 51.3047C527.097 51.3047 516.841 51.3047 506.586 51.3047C504.74 51.3047 502.894 51.352 501.048 51.3047Z" fill="#E6E6E6"/>
<path fill-rule="evenodd" clip-rule="evenodd" d="M530.867 17.3666C531.057 19.118 531.341 20.822 531.577 22.526C532.524 29.4682 533.486 36.4104 534.465 43.3526C534.701 45.3406 535.033 47.3286 535.269 49.364C533.376 49.364 531.498 49.364 529.637 49.364C529.305 47.1393 529.069 44.8673 528.785 42.6426C527.333 42.6426 525.866 42.6426 524.383 42.6426C524.099 44.82 523.767 47.0446 523.483 49.2693C521.685 49.3166 519.933 49.3166 518.182 49.3166C519.886 38.6666 521.543 28.0166 523.294 17.3666C525.818 17.3666 528.343 17.3666 530.867 17.3666ZM525.661 32.324C525.471 34.17 525.187 36.016 524.951 37.862C526.087 37.862 527.223 37.862 528.311 37.862C528.217 37.7673 528.217 37.6253 528.169 37.4833C527.649 33.46 527.128 29.4366 526.607 25.4133C526.276 27.7326 525.992 30.0046 525.661 32.324ZM510.277 17.3666C510.277 25.8235 510.277 34.2962 510.277 42.7846C510.277 43.3053 510.277 43.826 510.23 44.3466C512.597 44.3466 514.963 44.3466 517.283 44.3466C517.314 45.9875 517.314 47.6442 517.283 49.3166C512.786 49.3166 508.242 49.3166 503.698 49.3166C503.745 47.376 503.698 45.4353 503.745 43.542C503.745 34.8011 503.745 26.076 503.745 17.3666C505.923 17.414 508.1 17.3666 510.277 17.3666Z" fill="#022757"/>
</g>
<g clip-path="url(#clip2_25125_332)">
<path d="M786.995 27.3633C786.995 23.8673 787.056 20.6125 787.237 17.5987L778.014 19.3467V20.1905L778.919 20.3111C779.582 20.3714 780.003 20.6125 780.245 20.9741C780.486 21.396 780.667 21.9988 780.787 22.9029C780.908 24.6509 781.028 28.6291 780.968 34.8977C780.968 41.1061 780.908 45.024 780.787 46.5309C784.102 47.2542 786.694 47.5556 788.623 47.5556C792.239 47.5556 795.072 46.5309 797.122 44.4213C799.171 42.3719 800.256 39.4787 800.256 35.9224C800.256 33.0895 799.472 30.7387 797.905 28.8702C796.338 27.0017 794.349 26.0975 791.998 26.0975C790.431 26.0975 788.804 26.5195 786.995 27.3633ZM787.176 45.9281C787.056 43.9993 786.935 38.2129 786.935 28.7496C787.478 28.5688 788.201 28.4483 789.105 28.4483C790.552 28.4483 791.697 29.1716 792.541 30.6785C793.385 32.1853 793.807 33.9936 793.807 36.2841C793.807 39.117 793.324 41.4075 792.36 43.3363C791.396 45.2048 790.19 46.1692 788.683 46.1692C788.201 46.0487 787.719 45.9884 787.176 45.9281ZM743.416 18.2014H719.306V19.407L720.572 19.5275C721.536 19.7083 722.199 20.07 722.621 20.6125C723.043 21.2152 723.284 22.1796 723.345 23.5057C723.827 30.0154 723.827 36.1032 723.345 41.7089C723.224 43.0349 722.983 43.9993 722.621 44.6021C722.199 45.2048 721.536 45.5665 720.572 45.687L719.306 45.8679V47.0734H734.857V45.8679L733.23 45.7473C732.833 45.7141 732.446 45.6008 732.094 45.4144C731.742 45.2279 731.431 44.9721 731.18 44.6624C730.758 44.0596 730.517 43.0952 730.457 41.7691C730.276 39.3581 730.156 36.5854 730.156 33.5114L733.411 33.5717C735.159 33.632 736.364 34.958 736.967 37.6101H738.172V27.7852H736.967C736.364 30.3771 735.219 31.7031 733.411 31.7634L730.156 31.8237C730.156 26.3989 730.276 22.5413 730.457 20.1905H735.219C738.594 20.1905 740.885 22.3605 742.211 26.7003L743.657 26.2784L743.416 18.2014ZM740.583 36.7663C740.583 39.9006 741.488 42.4924 743.235 44.5418C744.983 46.5912 747.575 47.5556 750.83 47.5556C754.085 47.5556 756.737 46.5309 758.666 44.4213C760.595 42.3719 761.499 39.78 761.499 36.6457C761.499 33.5114 760.595 30.9196 758.847 28.8702C757.099 26.8208 754.507 25.8564 751.252 25.8564C747.997 25.8564 745.345 26.8811 743.416 28.9907C741.488 31.0401 740.583 33.632 740.583 36.7663ZM754.025 29.8949C754.748 31.6429 755.049 33.9333 755.049 36.706C755.049 43.0952 753.723 46.2295 751.132 46.2295C749.806 46.2295 748.781 45.3254 748.058 43.5171C747.334 41.7089 747.033 39.4184 747.033 36.706C747.033 30.3771 748.359 27.2428 750.951 27.2428C752.277 27.1825 753.301 28.0866 754.025 29.8949ZM804.958 44.5418C806.947 46.5309 809.478 47.5556 812.492 47.5556C814.36 47.5556 815.988 47.1939 817.435 46.4103C818.881 45.687 820.026 44.7829 820.81 43.6979L820.207 42.9746C818.881 43.9993 817.374 44.4815 815.626 44.4815C813.215 44.4815 811.347 43.6979 810.081 42.0705C808.755 40.4431 808.152 38.3937 808.273 35.7416H821.172C821.172 32.8484 820.448 30.4976 818.941 28.6291C817.435 26.8208 815.325 25.9167 812.612 25.9167C809.237 25.9167 806.645 27.0017 804.777 29.1113C802.908 31.2209 802.004 33.8128 802.004 36.8868C802.004 40.0211 802.968 42.5527 804.958 44.5418ZM809.418 29.4127C810.081 27.9661 810.925 27.2428 812.07 27.2428C813.878 27.2428 814.782 29.5332 814.782 34.1744L808.393 34.295C808.453 32.4867 808.755 30.8593 809.418 29.4127ZM837.386 27.0017C835.758 26.2784 833.709 25.8564 831.238 25.8564C828.706 25.8564 826.717 26.5195 825.21 27.7852C823.703 29.051 822.92 30.6182 822.92 32.4867C822.92 34.1142 823.402 35.3799 824.306 36.2841C825.21 37.1882 826.657 37.9718 828.525 38.6348C830.213 39.2376 831.418 39.8403 832.021 40.3828C832.624 40.9856 832.986 41.6486 832.986 42.5527C832.986 43.3966 832.684 44.1801 832.021 44.7829C831.418 45.4459 830.575 45.7473 829.49 45.7473C826.837 45.7473 824.848 43.8185 823.462 39.9609L822.437 40.2622L822.678 46.2898C824.848 47.1336 827.259 47.5556 829.912 47.5556C832.684 47.5556 834.794 46.9528 836.361 45.687C837.928 44.4815 838.712 42.7335 838.712 40.5636C838.712 39.117 838.35 37.9115 837.566 37.0074C836.783 36.1032 835.517 35.3197 833.709 34.5964C831.72 33.8731 830.333 33.21 829.61 32.6073C828.887 32.0045 828.525 31.2812 828.525 30.3771C828.525 29.4729 828.766 28.7496 829.309 28.1469C829.851 27.5441 830.514 27.303 831.358 27.303C833.769 27.303 835.517 29.051 836.602 32.4867L837.627 32.1853L837.386 27.0017ZM779.401 26.4592C778.557 26.0373 777.653 25.8564 776.628 25.8564C775.603 25.8564 774.579 26.2784 773.433 27.1222C772.288 27.9661 771.444 29.1113 770.781 30.6785L770.842 25.8564L761.68 27.6647V28.5085L762.584 28.5688C763.729 28.6894 764.392 29.5935 764.513 31.2209C764.874 34.958 764.874 38.9362 764.513 43.1555C764.392 44.7829 763.729 45.6268 762.584 45.8076L761.68 45.9281V47.0734H774.458V45.9281L772.831 45.8076C771.685 45.687 771.022 44.7829 770.902 43.1555C770.54 39.6595 770.48 35.9224 770.781 32.0648C771.143 31.462 771.927 31.1004 773.132 30.9798C774.338 30.8593 775.724 31.2209 777.171 32.0648L779.401 26.4592Z" fill="#E6E6E6"/>
</g>
<path d="M989.879 41.1336C986.5 41.1336 983.759 43.8731 983.759 47.2544C983.759 50.6339 986.5 53.3752 989.879 53.3752C993.261 53.3752 996 50.6339 996 47.2544C996 43.8731 993.261 41.1336 989.879 41.1336ZM994.78 37.4458H985.029V13.7542H994.78V37.4458Z" fill="#E6E6E6"/>
<path d="M979.493 13.7548L965.733 29.864L965.562 29.8715L968.125 13.7548H956.952L950.827 52.761H961.918L964.575 36.0855H964.713L974.205 52.761H987.438L975.18 32.298L992.234 13.7548H979.493Z" fill="#E6E6E6"/>
<path d="M937.044 13C923.484 13 914 22.9716 914 35.9483C914 46.7145 921.613 53.6028 932.326 53.6028C945.887 53.6028 955.37 43.6312 955.37 30.6546C955.37 19.8884 947.757 13 937.044 13ZM933.358 43.7383C927.273 43.7542 924.84 39.5606 924.84 34.6097C924.84 28.5122 928.802 22.4509 936.007 22.4342C942.092 22.4193 944.526 26.611 944.526 31.5628C944.526 37.6613 940.563 43.7216 933.358 43.7383Z" fill="#E6E6E6"/>
<path d="M1204.06 46.9969H1200.97L1199.11 26.6943C1198.94 24.8797 1198.3 24.7108 1195.84 24.7108L1196.27 23.2761H1209.31L1208.89 24.7108C1206.51 24.7108 1205.63 25.0065 1205.63 26.0614C1205.63 27.3167 1205.7 28.5709 1205.84 29.818L1206.77 39.3995H1206.85L1213.2 29.5229L1212.87 25.7242C1212.78 25.0065 1212.53 24.6687 1210.32 24.6687L1210.75 23.234H1223.79L1223.37 24.6687C1220.44 24.6687 1219.68 24.8797 1219.68 26.3571C1219.68 27.201 1219.85 28.2565 1219.89 28.9321L1220.74 39.7367H1220.82L1227.9 28.6784C1228.91 26.9486 1229.5 26.1462 1229.5 25.5974C1229.5 24.9218 1229.17 24.6687 1225.99 24.6687L1226.41 23.234H1236.11L1235.69 24.6687C1232.93 24.6687 1232.47 25.0486 1231.54 26.4413L1218.07 46.9969H1214.9L1213.59 32.435H1213.5L1204.06 46.9969ZM1237.42 30.3668C1241.39 30.3317 1244.65 33.4993 1244.7 37.4575C1244.7 42.8604 1239.84 47.4189 1234.25 47.4189C1230.28 47.4539 1227.02 44.2864 1226.96 40.3282C1226.96 34.8832 1232.38 30.3668 1237.42 30.3668ZM1239.71 34.3344C1239.71 32.393 1239.03 31.6332 1237.51 31.6332C1234.16 31.6332 1231.96 39.9056 1231.96 43.3671C1231.96 45.3086 1232.64 46.0683 1234.16 46.0683C1237.38 46.1104 1239.71 38.6398 1239.71 34.3344ZM1244.58 46.9969L1247.54 35.0941C1247.72 34.4902 1247.82 33.8661 1247.84 33.2369C1247.84 32.435 1247.33 32.182 1245.89 32.0973L1246.23 30.8735L1253.09 30.7467L1252.24 35.01L1252.33 35.0941C1253.64 32.182 1255.92 30.4089 1258.04 30.4089C1258.4 30.3993 1258.76 30.462 1259.1 30.5933C1259.44 30.7247 1259.75 30.922 1260.01 31.1739C1260.53 31.6823 1260.83 32.3801 1260.84 33.1106C1260.85 33.4687 1260.79 33.8255 1260.65 34.1586C1260.52 34.4916 1260.32 34.794 1260.07 35.0468C1259.81 35.3001 1259.51 35.4986 1259.18 35.6302C1258.84 35.7618 1258.49 35.8236 1258.13 35.8118C1256.73 35.8118 1256.14 35.0521 1256.14 33.8704C1256.14 33.3853 1256.25 32.9084 1256.47 32.4771L1256.39 32.393C1254.53 33.068 1252.07 37.3734 1250.55 42.5647L1249.24 47.039H1244.58V46.9969ZM1265.83 40.8763C1265.2 43.1982 1264.77 44.675 1264.77 45.1397C1264.77 45.4348 1264.99 45.6037 1265.32 45.6037C1266.13 45.6037 1267.27 43.958 1268.46 42.0586L1269.43 42.7336C1268.33 44.9287 1266.47 47.4189 1263.72 47.4189C1261.39 47.4189 1260.24 45.8994 1260.24 43.9153C1260.24 41.594 1260.84 39.9904 1261.68 36.8246L1264.27 27.4547C1264.4 26.9988 1264.5 26.533 1264.56 26.0614C1264.56 25.2596 1264.05 25.0065 1262.15 24.9218L1262.49 23.698L1270.57 23.5712L1265.83 40.8763Z" fill="#E6E6E6"/>
<path d="M1281.12 23.7401L1288.99 23.6139L1284.08 42.7336C1283.74 44.169 1283.61 44.5909 1283.61 45.0976C1283.61 45.3927 1283.7 45.7726 1284.12 45.7726C1285.35 45.7726 1287.04 42.3117 1287.43 41.5099L1288.57 42.2275C1287.51 44.7171 1285.82 47.4189 1282.77 47.4189C1280.9 47.4189 1279.55 46.1945 1279.21 43.747H1279.13C1278.32 45.7305 1276.54 47.4189 1274.17 47.4189C1270.74 47.4189 1268.12 44.9287 1268.12 40.6654C1268.12 34.6722 1273.33 30.3668 1277.52 30.3668C1279.51 30.3668 1280.65 31.2955 1281.24 32.857H1281.33C1281.96 30.24 1282.98 26.9059 1282.98 26.3992C1282.98 25.5553 1282.47 25.0492 1280.69 24.9645L1281.12 23.7401ZM1280.35 34.8411C1280.35 32.646 1279.51 32.0125 1278.36 32.0125C1275.99 32.0125 1273.11 38.8502 1273.11 43.5355C1273.11 44.9708 1273.83 45.7305 1274.85 45.7305C1277.09 45.7305 1280.35 40.4123 1280.35 34.8411ZM1115.4 25.3864C1111.97 25.3864 1113.07 22.6005 1108.2 22.0944C1103.8 21.6298 1099.52 26.737 1099.52 26.737L1086.19 46.8701H1083.01L1081.7 32.3082H1081.61L1072.21 46.8701H1069.12L1067.26 26.5681C1067.09 24.7535 1066.46 24.5846 1064 24.5846L1064.42 23.1072H1077.46L1077.04 24.5419C1074.67 24.5419 1073.78 24.8377 1073.78 25.8931C1073.78 27.1479 1073.85 28.402 1073.99 29.6492L1074.92 39.2306H1075.01L1081.36 29.354L1081.02 25.5553C1080.94 24.8377 1080.68 24.4999 1078.48 24.4999L1078.9 23.0651H1091.94L1091.52 24.4999C1088.6 24.4999 1087.84 24.7108 1087.84 26.1888C1087.84 27.0327 1088.01 28.0882 1088.05 28.7632L1088.9 39.5684H1088.98L1096.05 28.5095C1096.05 28.5095 1102.28 18.0842 1111.72 18C1119.46 18.0421 1118.83 25.3864 1115.4 25.3864Z" fill="#E6E6E6"/>
<path d="M1104.69 30.198C1108.67 30.1676 1111.93 33.3585 1111.97 37.3313C1111.97 42.7337 1107.1 47.2921 1101.51 47.2921C1097.53 47.3225 1094.27 44.1316 1094.23 40.1593C1094.23 34.7143 1099.65 30.198 1104.69 30.198ZM1106.97 34.2076C1106.97 32.2662 1106.3 31.5065 1104.77 31.5065C1101.43 31.5065 1099.23 39.7795 1099.23 43.2404C1099.23 45.1818 1099.9 45.9415 1101.43 45.9415C1104.65 45.9415 1106.97 38.513 1106.97 34.2076ZM1111.67 46.8702L1114.51 36.1497C1115.1 33.9546 1115.19 33.3211 1115.19 32.9412C1115.19 32.3083 1114.89 32.0552 1113.24 31.9711L1113.58 30.7467L1120.35 30.6199C1120.14 31.3797 1119.93 32.7729 1119.51 34.2924L1119.59 34.3765C1121.24 31.7595 1122.77 30.2827 1125.26 30.2827C1127.85 30.2827 1128.86 31.9284 1128.91 34.4186H1128.99C1130.6 31.8443 1132.34 30.2827 1134.79 30.2827C1136.87 30.2827 1138.73 32.2241 1138.73 34.9253C1138.73 37.6265 1135.98 42.4806 1135.98 44.4641C1135.98 44.9288 1136.15 45.1397 1136.49 45.1397C1137.42 45.1397 1139.15 42.3959 1139.45 41.6788L1140.55 42.3538C1139.32 44.633 1137.46 47.3342 1134.54 47.3342C1133.01 47.3342 1131.36 46.2793 1131.36 43.6623C1131.36 40.5813 1134.28 35.6009 1134.28 33.5326C1134.3 33.3748 1134.28 33.2152 1134.23 33.0647C1134.18 32.9141 1134.1 32.7761 1133.99 32.6601C1133.88 32.544 1133.75 32.4525 1133.6 32.3918C1133.46 32.3311 1133.3 32.3026 1133.14 32.3083C1131.15 32.3083 1128.4 37.3734 1126.49 44.591L1125.86 46.9543H1121.07L1123.91 36.4027C1124.23 35.381 1124.47 34.3368 1124.63 33.279C1124.64 33.1495 1124.63 33.0183 1124.58 32.8958C1124.54 32.7733 1124.47 32.6627 1124.37 32.5728C1124.28 32.4829 1124.17 32.4161 1124.04 32.3776C1123.92 32.3391 1123.78 32.33 1123.66 32.351C1121.67 32.351 1118.66 37.2045 1116.33 46.9964H1111.67L1111.67 46.8702Z" fill="#E6E6E6"/>
<path d="M1158.5 30.5357L1155.45 42.8605C1155.29 43.5132 1155.18 44.1759 1155.11 44.844C1155.11 45.1397 1155.2 45.4775 1155.58 45.4775C1156.89 45.4775 1158.59 42.3117 1159.9 41.7629L1161.04 42.3959C1158.97 44.422 1157.36 47.2921 1154.18 47.2921C1152.24 47.2921 1151.05 45.9836 1150.71 43.6202H1150.63C1149.23 45.7726 1147.87 47.2921 1145.38 47.2921C1142.41 47.2921 1139.19 45.4348 1139.19 40.6239C1139.19 35.3472 1144.11 30.24 1148.98 30.24C1151.13 30.24 1152.15 31.3796 1152.7 32.9839H1152.79L1153.34 30.5778H1158.5V30.5357ZM1149.78 32.0131C1146.6 32.0131 1144.57 39.6947 1144.57 42.9873C1144.57 44.7172 1145.12 45.4769 1146.31 45.4769C1149.4 45.4769 1151.94 38.6392 1151.94 35.01C1151.94 32.9839 1151.18 32.0131 1149.78 32.0131ZM1177.13 31.1266C1178.49 30.4089 1180.22 29.6071 1180.31 27.8346C1180.07 27.9065 1179.83 27.935 1179.59 27.9187C1178.53 27.9187 1177.89 27.1169 1177.89 26.1041C1177.89 25.8284 1177.93 25.5539 1178.04 25.2973C1178.14 25.0406 1178.29 24.807 1178.48 24.6104C1178.68 24.4133 1178.91 24.2571 1179.16 24.1511C1179.42 24.0451 1179.69 23.9914 1179.97 23.9932C1181.58 23.9932 1182.42 25.1755 1182.42 26.695C1182.42 29.3961 1179.84 31.1687 1177.55 32.0552C1176.62 31.9711 1177.13 31.1266 1177.13 31.1266Z" fill="#E6E6E6"/>
<path d="M1176.11 45.4775C1175.06 46.5324 1173.83 47.2501 1172.26 47.2501C1170.7 47.2501 1168.92 46.2793 1168.92 43.7044C1168.92 40.9612 1171.97 35.8539 1171.97 33.5326C1171.99 33.3556 1171.97 33.1762 1171.91 33.0078C1171.85 32.8394 1171.75 32.6866 1171.63 32.5608C1171.5 32.4347 1171.35 32.339 1171.18 32.2807C1171.01 32.2224 1170.83 32.2031 1170.65 32.2241C1168.58 32.2241 1165.74 36.6978 1164.01 43.3672L1163.12 46.8702H1158.21L1161.08 36.4448C1161.47 35.0101 1162.02 33.4058 1162.02 32.9418C1162.02 32.3083 1161.76 32.0552 1160.03 31.9711L1160.36 30.7467L1167.35 30.6199C1167.14 31.4644 1166.88 32.7729 1166.59 33.9967L1166.67 34.0814C1168.16 32.0973 1169.68 30.2827 1172.35 30.2827C1175.01 30.2827 1176.62 32.4351 1176.62 34.9253C1176.62 37.6691 1173.7 42.8184 1173.7 44.4641C1173.7 44.8019 1173.83 45.1397 1174.34 45.1397C1174.29 45.055 1176.79 43.7471 1176.11 45.4775Z" fill="#E6E6E6"/>
<path d="M1186.11 30.1979C1191.1 30.1979 1192.54 32.3509 1192.54 33.7015C1192.54 35.2631 1191.74 36.0649 1190.04 36.0649C1188.65 36.0649 1187.67 35.2631 1187.67 34.0814C1187.67 32.4351 1189.16 32.3509 1189.16 32.2241C1189.16 32.0973 1188.14 31.5912 1186.36 31.5912C1184.58 31.5912 1182.85 32.6461 1182.85 34.1235C1182.85 37.2045 1191.57 36.6557 1191.57 42.016C1191.57 45.2244 1188.05 47.8835 1182.04 47.8835C1178.74 47.8835 1175.48 46.4061 1175.48 43.4092C1175.48 41.9318 1176.54 40.9605 1178.27 40.9605C1178.87 40.9411 1179.45 41.1549 1179.9 41.5568C1180.34 41.9587 1180.61 42.517 1180.65 43.1135C1180.65 45.055 1178.87 45.3086 1178.87 45.4348C1178.87 45.9842 1180.09 46.5324 1182.3 46.5324C1185.22 46.5324 1186.74 45.1824 1186.74 44.1269C1186.74 40.4124 1178.15 41.341 1178.15 35.8539C1178.19 32.4772 1181.79 30.1979 1186.11 30.1979Z" fill="#E6E6E6"/>
</g>
<defs>
<clipPath id="clip0_25125_332">
<rect width="125.199" height="45.8746" fill="white" transform="translate(301.8 10)"/>
</clipPath>
<clipPath id="clip1_25125_332">
<rect width="142" height="36.4467" fill="white" transform="translate(501 15)"/>
</clipPath>
<clipPath id="clip2_25125_332">
<rect width="119.338" height="43.3956" fill="white" transform="translate(719.4 11)"/>
</clipPath>
</defs>
</svg>
